<svg width="409" height="409" viewBox="0 0 409 409" fill="none" xmlns="http://www.w3.org/2000/svg">
<path d="M405.672 240.933L361.921 202.34L404.125 162.08C405.675 160.6 406.314 158.412 405.801 156.337C405.289 154.262 403.701 152.619 401.639 152.023L345.468 135.813L366.228 81.4477C366.991 79.4506 366.624 77.2011 365.267 75.5452C363.909 73.89 361.765 73.0808 359.644 73.4227L301.91 82.7306L297.214 24.7669C297.042 22.6372 295.74 20.7607 293.799 19.8453C291.859 18.9298 289.573 19.1128 287.805 20.3254L239.663 53.3505L210.419 2.98921C209.344 1.13913 207.359 0 205.21 0C203.061 0 201.077 1.13913 200.003 2.98921L166.433 60.7988L108.367 27.2856C106.508 26.2127 104.215 26.208 102.353 27.2712C100.489 28.3344 99.3391 30.3059 99.3335 32.442L99.1929 90.5927L40.9064 85.7885C38.7695 85.6128 36.6926 86.585 35.4688 88.34C34.2442 90.095 34.054 92.3669 34.9719 94.2985L59.9289 146.889L5.19877 167.404C3.18892 168.157 1.73585 169.92 1.38596 172.028C1.03607 174.136 1.84529 176.269 3.50765 177.623L48.7365 214.49L8.14565 256.357C6.65503 257.894 6.10144 260.106 6.69497 262.159C7.2893 264.212 8.93968 265.794 11.0238 266.309L67.7846 280.329L49.1759 335.457C48.4921 337.482 48.9474 339.715 50.3693 341.317C51.792 342.919 53.9656 343.644 56.0705 343.22L113.394 331.682L120.361 389.42C120.616 391.541 121.991 393.365 123.966 394.205C125.942 395.045 128.218 394.774 129.937 393.493L176.746 358.627L207.944 406.21C209.048 407.95 210.971 408.999 213.03 408.999C213.108 408.999 213.186 408.998 213.266 408.994C215.412 408.911 217.352 407.696 218.352 405.805L245.598 355.955L294.997 387.088C296.813 388.232 299.1 388.326 301.006 387.336C302.908 386.345 304.136 384.42 304.225 382.286L306.646 324.184L364.7 331.245C366.828 331.504 368.942 330.613 370.234 328.907C371.527 327.2 371.805 324.938 370.965 322.972L348.089 269.453L403.58 251.077C405.619 250.402 407.14 248.698 407.572 246.605C408.003 244.513 407.279 242.351 405.672 240.933Z" fill="#FFA600"/>
<path d="M203.182 327.232C271.595 327.232 327.055 271.815 327.055 203.454C327.055 135.094 271.595 79.6767 203.182 79.6767C134.769 79.6767 79.3085 135.094 79.3085 203.454C79.3085 271.815 134.769 327.232 203.182 327.232Z" fill="#FFDB2D"/>
<path d="M203.185 79.6775C200.082 79.6775 197.009 79.7949 193.964 80.0194C258.07 84.7333 308.616 138.194 308.616 203.455C308.616 268.715 258.07 322.176 193.964 326.891C197.009 327.115 200.083 327.233 203.185 327.233C271.598 327.233 327.058 271.816 327.058 203.456C327.058 135.095 271.598 79.6775 203.185 79.6775Z" fill="#FFCA00"/>
<g clip-path="url(#clip0)">
<path d="M259.621 137.821C258.601 136.919 257.25 136.487 255.897 136.627L169.623 146.213C167.195 146.482 165.357 148.534 165.358 150.977V236.393C161.014 233.793 156.041 232.432 150.979 232.458C137.764 232.458 127.014 241.056 127.014 251.629C127.014 262.203 137.764 270.801 150.978 270.801C164.192 270.801 174.943 262.207 174.943 251.629V179.256L251.631 170.715V226.792C247.285 224.198 242.313 222.842 237.252 222.872C224.038 222.872 213.287 231.47 213.287 242.044C213.287 252.617 224.038 261.216 237.252 261.216C250.466 261.216 261.217 252.622 261.217 242.044V141.391C261.217 140.028 260.636 138.73 259.621 137.821Z" fill="#353B48"/>
</g>
<defs>
<clipPath id="clip0">
<rect width="134.203" height="134.203" fill="white" transform="translate(127.014 136.6)"/>
</clipPath>
</defs>
</svg>
