<svg width="16" height="16" viewBox="0 0 16 16" fill="none" xmlns="http://www.w3.org/2000/svg">
<path d="M8 0C3.58853 0 0 3.58853 0 8C0 12.4115 3.58853 16 8 16C12.4115 16 16 12.4108 16 8C16 3.58916 12.4115 0 8 0ZM8 14.7607C4.27266 14.7607 1.23934 11.728 1.23934 8C1.23934 4.27203 4.27266 1.23934 8 1.23934C11.7273 1.23934 14.7607 4.27203 14.7607 8C14.7607 11.728 11.728 14.7607 8 14.7607Z" fill="white"/>
<path d="M11.0984 7.32457H8.61973V4.84588C8.61973 4.50382 8.34273 4.2262 8.00004 4.2262C7.65736 4.2262 7.38036 4.50382 7.38036 4.84588V7.32457H4.90167C4.55898 7.32457 4.28198 7.6022 4.28198 7.94426C4.28198 8.28632 4.55898 8.56395 4.90167 8.56395H7.38036V11.0426C7.38036 11.3847 7.65736 11.6623 8.00004 11.6623C8.34273 11.6623 8.61973 11.3847 8.61973 11.0426V8.56395H11.0984C11.4411 8.56395 11.7181 8.28632 11.7181 7.94426C11.7181 7.6022 11.4411 7.32457 11.0984 7.32457Z" fill="white"/>
</svg>
