<svg width="16" height="16" viewBox="0 0 16 16" fill="none" xmlns="http://www.w3.org/2000/svg">
<g clip-path="url(#clip0)">
<path d="M11.0088 6.5586C12.8199 6.5586 14.2881 5.09041 14.2881 3.2793C14.2881 1.46819 12.8199 0 11.0088 0C9.19768 0 7.72949 1.46819 7.72949 3.2793C7.72949 5.09041 9.19768 6.5586 11.0088 6.5586Z" fill="white"/>
<path d="M5.30367 12.035C4.86832 12.035 4.45895 12.2046 4.15111 12.5125L3.74892 12.9146C3.52417 13.1394 3.15846 13.1394 2.93358 12.9146C2.70883 12.6898 2.70883 12.3241 2.93358 12.0993L3.37805 11.6548C3.76439 11.7927 4.20801 11.7332 4.55029 11.4662L9.73287 7.42195C9.06496 7.21717 8.453 6.85102 7.94506 6.34299C7.437 5.83496 7.07081 5.22296 6.866 4.55499L2.82171 9.73763C2.55464 10.0799 2.49521 10.5235 2.63308 10.9099L2.18858 11.3544C1.55302 11.99 1.55302 13.0241 2.18858 13.6597C2.8243 14.2952 3.85833 14.2952 4.49382 13.6597L4.89601 13.2575C5.12079 13.0328 5.48648 13.0327 5.71132 13.2575C5.93607 13.4823 5.93607 13.848 5.71132 14.0728L4.52901 15.2551L5.27398 16.0001L6.45629 14.8177C7.09185 14.1822 7.09185 13.1481 6.45629 12.5125C6.14841 12.2046 5.73907 12.035 5.30367 12.035Z" fill="white"/>
</g>
<defs>
<clipPath id="clip0">
<rect width="16" height="16" fill="white"/>
</clipPath>
</defs>
</svg>
