<svg width="16" height="16" viewBox="0 0 16 16" fill="none" xmlns="http://www.w3.org/2000/svg">
<g clip-path="url(#clip0)">
<path d="M11.009 6.5586C12.8201 6.5586 14.2883 5.09041 14.2883 3.2793C14.2883 1.46819 12.8201 0 11.009 0C9.19793 0 7.72974 1.46819 7.72974 3.2793C7.72974 5.09041 9.19793 6.5586 11.009 6.5586Z" fill="#FFA600"/>
<path d="M5.30342 12.035C4.86808 12.035 4.45871 12.2046 4.15086 12.5125L3.74868 12.9146C3.52393 13.1394 3.15821 13.1394 2.93334 12.9146C2.70859 12.6898 2.70859 12.3241 2.93334 12.0993L3.3778 11.6548C3.76415 11.7927 4.20777 11.7332 4.55005 11.4662L9.73262 7.42195C9.06472 7.21717 8.45275 6.85102 7.94482 6.34299C7.43676 5.83496 7.07057 5.22296 6.86576 4.55499L2.82146 9.73763C2.5544 10.0799 2.49496 10.5235 2.63284 10.9099L2.18834 11.3544C1.55278 11.99 1.55278 13.0241 2.18834 13.6597C2.82406 14.2952 3.85808 14.2952 4.49358 13.6597L4.89577 13.2575C5.12055 13.0328 5.48623 13.0327 5.71108 13.2575C5.93583 13.4823 5.93583 13.848 5.71108 14.0728L4.52877 15.2551L5.27373 16.0001L6.45604 14.8177C7.0916 14.1822 7.0916 13.1481 6.45604 12.5125C6.14817 12.2046 5.73883 12.035 5.30342 12.035Z" fill="#FFA600"/>
</g>
<defs>
<clipPath id="clip0">
<rect width="16" height="16" fill="white"/>
</clipPath>
</defs>
</svg>
