<svg width="427" height="427" viewBox="0 0 427 427" fill="none" xmlns="http://www.w3.org/2000/svg">
<g clip-path="url(#clip0)">
<path d="M272.398 154.703C266.875 154.703 262.398 159.179 262.398 164.703V353.703C262.398 359.222 266.875 363.703 272.398 363.703C277.922 363.703 282.398 359.222 282.398 353.703V164.703C282.398 159.179 277.922 154.703 272.398 154.703Z" fill="white"/>
<path d="M154.399 154.703C148.875 154.703 144.399 159.179 144.399 164.703V353.703C144.399 359.222 148.875 363.703 154.399 363.703C159.922 363.703 164.399 359.222 164.399 353.703V164.703C164.399 159.179 159.922 154.703 154.399 154.703Z" fill="white"/>
<path d="M68.3989 127.121V373.499C68.3989 388.061 73.7387 401.737 83.0668 411.549C92.3519 421.389 105.274 426.975 118.797 426.999H308C321.527 426.975 334.449 421.389 343.73 411.549C353.058 401.737 358.398 388.061 358.398 373.499V127.121C376.941 122.199 388.956 104.285 386.476 85.2575C383.992 66.2341 367.785 52.0037 348.597 51.9998H297.398V39.4998C297.457 28.9882 293.3 18.8944 285.859 11.4687C278.418 4.04683 268.308 -0.0859661 257.797 -2.88595e-05H169C158.488 -0.0859661 148.379 4.04683 140.938 11.4687C133.496 18.8944 129.34 28.9882 129.399 39.4998V51.9998H78.1996C59.0122 52.0037 42.8052 66.2341 40.3208 85.2575C37.8404 104.285 49.8559 122.199 68.3989 127.121V127.121ZM308 406.999H118.797C101.7 406.999 88.3988 392.311 88.3988 373.499V128H338.398V373.499C338.398 392.311 325.097 406.999 308 406.999ZM149.399 39.4998C149.332 34.2928 151.379 29.2811 155.074 25.6054C158.766 21.9296 163.789 19.9101 169 19.9999H257.797C263.008 19.9101 268.031 21.9296 271.722 25.6054C275.418 29.2772 277.465 34.2928 277.398 39.4998V51.9998H149.399V39.4998ZM78.1996 71.9997H348.597C358.539 71.9997 366.597 80.0583 366.597 89.9997C366.597 99.9411 358.539 108 348.597 108H78.1996C68.2582 108 60.1997 99.9411 60.1997 89.9997C60.1997 80.0583 68.2582 71.9997 78.1996 71.9997V71.9997Z" fill="white"/>
<path d="M213.398 154.703C207.875 154.703 203.398 159.179 203.398 164.703V353.703C203.398 359.222 207.875 363.703 213.398 363.703C218.922 363.703 223.398 359.222 223.398 353.703V164.703C223.398 159.179 218.922 154.703 213.398 154.703Z" fill="white"/>
</g>
<defs>
<clipPath id="clip0">
<rect width="427" height="427" fill="white"/>
</clipPath>
</defs>
</svg>
