<svg width="2679" height="2988" viewBox="0 0 2679 2988" fill="none" xmlns="http://www.w3.org/2000/svg">
<g clip-path="url(#clip0)">
<path d="M757.236 2586.76C712.685 2572.8 659.135 2605.17 616.199 2586.76" stroke="black" stroke-width="5.71135" stroke-miterlimit="10"/>
<path d="M1927.91 1186.17C1927.91 1627.07 1570.51 1984.45 1129.63 1984.45C688.723 1984.45 331.34 1627.07 331.34 1186.17C331.34 745.301 688.723 387.889 1129.63 387.889C1570.51 387.889 1927.91 745.301 1927.91 1186.17Z" fill="#FFA600"/>
<path d="M1496.08 2468.4C1515.39 2496.36 1621.59 2444.69 1657.27 2452.19C1689.31 2458.92 1710.96 2477.33 1747.01 2469.51C1774.31 2463.56 1801.29 2443.65 1829.64 2435.17C1857.51 2426.83 1893.84 2423.96 1922.31 2433.04C1946.83 2440.85 1969.64 2470.15 1995.76 2472.85C2025.33 2475.89 2045.73 2444.25 2069.29 2437.17C2100.45 2427.8 2115.41 2453.55 2144.84 2456.31" stroke="black" stroke-width="5.71135" stroke-miterlimit="10"/>
<path d="M2373.85 2543.76C2340.74 2531.21 2318.11 2552.89 2287.11 2562.33C2247.03 2574.52 2231.85 2550.18 2195.95 2549.75C2169.88 2549.44 2141.69 2574.4 2114.12 2574.14C2097.97 2573.98 2088.07 2562.07 2069.91 2563.23C2056.8 2564.07 2042.4 2575.52 2029 2577.35" stroke="black" stroke-width="5.71133" stroke-miterlimit="10"/>
<path d="M1032.14 2504.23C999.252 2491.08 976.236 2512.36 945.061 2521.23C904.781 2532.69 890.039 2508.07 854.161 2507C828.097 2506.23 799.451 2530.67 771.905 2529.89C755.741 2529.44 746.069 2517.36 727.889 2518.2C714.76 2518.81 700.152 2530 686.717 2531.57" stroke="black" stroke-width="5.71135" stroke-miterlimit="10"/>
<path d="M641.988 2700.84C693.489 2684.19 721.879 2685.85 774.967 2693.76C823.544 2701.01 857.324 2675.28 903.92 2673.52C951.803 2671.72 991.952 2697.87 1040.92 2692.99C1093.18 2687.77 1129.45 2697.41 1181.96 2704.87" stroke="black" stroke-width="5.71135" stroke-miterlimit="10"/>
<path d="M1505.65 2733.05C1542.67 2714.21 1589.88 2722.08 1630.59 2724.11C1673.96 2726.28 1709.67 2716.96 1751.55 2716.85C1791.17 2716.76 1829.19 2718.81 1868.33 2712.92C1907.16 2707.07 1964.2 2722.92 1997.27 2704.87" stroke="black" stroke-width="5.71135" stroke-miterlimit="10"/>
<path d="M1978.63 2593.52C1978.63 2643.07 1728.11 2683.24 1419.07 2683.24C1110.05 2683.24 859.524 2643.07 859.524 2593.52C859.524 2543.97 1110.05 2503.8 1419.07 2503.8C1728.11 2503.8 1978.63 2543.97 1978.63 2593.52Z" fill="black" fill-opacity="0.2"/>
<path d="M1085.83 1101.81C1088.82 1108.01 1083.34 1116.84 1073.61 1121.53C1063.87 1126.24 1053.56 1125.03 1050.56 1118.83C1047.58 1112.64 1053.04 1103.81 1062.79 1099.11C1072.53 1094.41 1082.84 1095.63 1085.83 1101.81" fill="black"/>
<path d="M1083.83 1103.61V1034.69" stroke="black" stroke-width="3.56952" stroke-miterlimit="10"/>
<path d="M1129.86 1087.75C1132.85 1093.93 1127.38 1102.76 1117.64 1107.47C1107.9 1112.16 1097.59 1110.95 1094.6 1104.76C1091.61 1098.56 1097.08 1089.73 1106.82 1085.03C1116.56 1080.35 1126.87 1081.55 1129.86 1087.75Z" fill="black"/>
<path d="M1127.86 1089.55V1020.61" stroke="black" stroke-width="3.56952" stroke-miterlimit="10"/>
<path d="M1129.62 1033.59L1081.99 1055.08V1033.08L1129.62 1011.59V1033.59Z" fill="black"/>
<path d="M1129.62 1044.33L1081.99 1065.83V1060.19L1129.62 1038.68V1044.33" fill="black"/>
<path d="M1955.17 1099.65C1958.16 1105.85 1952.69 1114.68 1942.95 1119.37C1933.21 1124.07 1922.91 1122.87 1919.91 1116.67C1916.92 1110.48 1922.39 1101.64 1932.13 1096.95C1941.87 1092.25 1952.19 1093.45 1955.17 1099.65Z" fill="black"/>
<path d="M1953.17 1101.45V1032.53" stroke="black" stroke-width="3.56952" stroke-miterlimit="10"/>
<path d="M1999.2 1085.57C2002.19 1091.77 1996.72 1100.6 1986.99 1105.29C1977.24 1109.99 1966.93 1108.79 1963.95 1102.6C1960.95 1096.4 1966.43 1087.57 1976.16 1082.87C1985.91 1078.17 1996.21 1079.39 1999.2 1085.57" fill="black"/>
<path d="M1997.2 1087.37V1018.45" stroke="black" stroke-width="3.56952" stroke-miterlimit="10"/>
<path d="M1998.97 1031.41L1951.33 1052.92V1030.92L1998.97 1009.41V1031.41Z" fill="black"/>
<path d="M1998.97 1042.16L1951.33 1063.67V1058.01L1998.97 1036.52V1042.16" fill="black"/>
<path d="M1560.9 340.557C1566.7 344.249 1566.7 354.642 1560.91 363.767C1555.11 372.891 1545.71 377.299 1539.9 373.607C1534.1 369.931 1534.09 359.554 1539.89 350.414C1545.69 341.289 1555.1 336.881 1560.9 340.557Z" fill="black"/>
<path d="M1560.16 343.132L1523.82 284.569" stroke="black" stroke-width="3.56954" stroke-miterlimit="10"/>
<path d="M1590.91 305.386C1596.7 309.062 1596.71 319.461 1590.92 328.574C1585.12 337.704 1575.72 342.121 1569.91 338.43C1564.11 334.738 1564.11 324.355 1569.89 315.225C1575.69 306.111 1585.09 301.695 1590.91 305.386Z" fill="black"/>
<path d="M1590.16 307.957L1553.82 249.404" stroke="black" stroke-width="3.56952" stroke-miterlimit="10"/>
<path d="M1562.15 259.489L1533.01 302.872L1521.41 284.181L1550.55 240.798L1562.15 259.489Z" fill="black"/>
<path d="M1567.82 268.61L1538.68 311.997L1535.7 307.183L1564.84 263.814L1567.82 268.61" fill="black"/>
<path d="M954.524 743.593C957.505 749.782 952.029 758.623 942.296 763.32C932.556 768.003 922.247 766.801 919.253 760.612C916.262 754.423 921.736 745.582 931.482 740.885C941.211 736.188 951.529 737.404 954.524 743.593Z" fill="black"/>
<path d="M952.513 745.406V676.486" stroke="black" stroke-width="3.5695" stroke-miterlimit="10"/>
<path d="M2079.18 727.075C2086.04 727.714 2090.78 736.954 2089.8 747.707C2088.8 758.474 2082.46 766.687 2075.62 766.077C2068.76 765.438 2064.02 756.198 2065 745.431C2065.97 734.679 2072.33 726.451 2079.18 727.075" fill="black"/>
<path d="M2079.69 729.718L2020.6 694.242" stroke="black" stroke-width="3.56951" stroke-miterlimit="10"/>
<path d="M914.487 1435.35C915.028 1442.2 906.737 1448.45 895.961 1449.32C885.192 1450.17 876.004 1445.32 875.455 1438.47C874.907 1431.61 883.201 1425.36 893.981 1424.49C904.753 1423.64 913.937 1428.49 914.487 1435.35Z" fill="black"/>
<path d="M911.969 1436.29L936.883 1372.04" stroke="black" stroke-width="3.56952" stroke-miterlimit="10"/>
<path d="M1170.53 413.277C1173.51 419.47 1168.04 428.294 1158.31 432.999C1148.57 437.688 1138.26 436.484 1135.26 430.29C1132.28 424.096 1137.75 415.273 1147.49 410.568C1157.23 405.863 1167.54 407.083 1170.53 413.277Z" fill="black"/>
<path d="M1168.52 415.092V346.161" stroke="black" stroke-width="3.56951" stroke-miterlimit="10"/>
<path d="M1183.77 376.939C1175.5 376.939 1177.07 366.544 1174.17 366.544C1171.27 366.544 1166.97 366.544 1166.97 366.544V344.553C1166.97 344.553 1172.16 344.553 1176.18 344.553C1180.19 344.553 1176.84 369.285 1183.77 369.285C1190.68 369.285 1192.02 376.939 1183.77 376.939Z" fill="black"/>
<path d="M1865.77 481.533C1872.02 484.366 1873.45 494.649 1868.97 504.502C1864.49 514.339 1855.78 520.004 1849.53 517.156C1843.28 514.308 1841.83 504.009 1846.31 494.187C1850.79 484.335 1859.51 478.67 1865.77 481.533Z" fill="black"/>
<path d="M1865.38 484.19L1821.3 431.204" stroke="black" stroke-width="3.56954" stroke-miterlimit="10"/>
<path d="M1852.69 445.133C1846.33 450.422 1840.89 441.435 1838.65 443.276C1836.43 445.133 1833.13 447.872 1833.13 447.872L1819.06 430.968C1819.06 430.968 1823.06 427.647 1826.14 425.082C1829.23 422.532 1842.46 443.67 1847.78 439.247C1853.09 434.809 1859.04 439.861 1852.69 445.133" fill="black"/>
<path d="M1843.04 2603.31C1841.68 2640.99 1795.28 2652.91 1791.84 2603.31C1788.4 2553.72 1740.64 1865.47 1740.64 1865.47H1843.04C1843.04 1865.47 1844.4 2565.64 1843.04 2603.31Z" fill="black"/>
<path d="M1680.84 2555.47C1679.69 2587.32 1640.47 2597.39 1637.56 2555.47C1634.65 2513.55 1594.28 1931.79 1594.28 1931.79H1680.84C1680.84 1931.79 1681.99 2523.61 1680.84 2555.47Z" fill="black"/>
<path d="M1297.76 2555.47C1298.91 2587.32 1338.12 2597.39 1341.04 2555.47C1343.95 2513.55 1384.32 1931.79 1384.32 1931.79H1297.76C1297.76 1931.79 1296.61 2523.61 1297.76 2555.47Z" fill="black"/>
<path d="M1160.88 2603.32C1162.24 2640.99 1208.64 2652.91 1212.08 2603.32C1215.53 2553.72 1263.29 1865.47 1263.29 1865.47H1160.88C1160.88 1865.47 1159.53 2565.64 1160.88 2603.32" fill="black"/>
<path d="M1560.25 1878.84C1560.25 1878.84 1273.51 1813.72 1304.28 1745.17C1335.05 1676.63 1503.53 1648.68 1566.68 1655.8C1603.19 1659.91 1699.08 1620.95 1751.47 1625.05C1789.68 1628.05 1897 1740.41 1899.92 1758.16C1906.87 1800.23 1560.25 1878.84 1560.25 1878.84Z" fill="black"/>
<path d="M1338.48 1649.2C1373.96 1711.36 1743.59 1695.16 1768.64 1628.64C1779.65 1599.39 1760.92 1407.11 1750.64 1313.31C1740.36 1219.52 1749.88 1096.91 1727.65 1069.37C1669.24 997.027 1592.99 997.027 1592.99 997.027H1494.37C1494.37 997.027 1421.92 1015.99 1379.44 1060.69C1301.78 1142.44 1347.16 1225.93 1355.08 1331.75C1375.69 1607.37 1303.99 1588.77 1338.48 1649.2" fill="white"/>
<path d="M1338.48 1649.2C1373.96 1711.36 1743.59 1695.16 1768.64 1628.64C1779.65 1599.39 1760.92 1407.11 1750.64 1313.31C1740.36 1219.52 1749.88 1096.91 1727.65 1069.37C1669.24 997.027 1592.99 997.027 1592.99 997.027H1494.37C1494.37 997.027 1421.92 1015.99 1379.44 1060.69C1301.78 1142.44 1347.16 1225.93 1355.08 1331.75C1375.69 1607.37 1303.99 1588.77 1338.48 1649.2V1649.2Z" stroke="black" stroke-width="5.14125" stroke-miterlimit="10"/>
<path d="M1745.55 1286.73C1781.79 1314 1783.29 1404.11 1794.85 1460.67C1808.99 1529.73 1924.79 1523.04 1911.61 1374.41C1889.37 1123.75 1703.75 1036.37 1671.63 1021.19" fill="white"/>
<path d="M1745.55 1286.73C1781.79 1314 1783.29 1404.11 1794.85 1460.67C1808.99 1529.73 1924.79 1523.04 1911.61 1374.41C1889.37 1123.75 1703.75 1036.37 1671.63 1021.19" stroke="black" stroke-width="5.14125" stroke-miterlimit="10" stroke-linecap="round" stroke-linejoin="round"/>
<path d="M1839.63 1378.28C1853.12 1351.24 1905.17 1306.29 1905.17 1306.29L1960.16 1289.99C1960.16 1289.99 1966.11 1466.96 1862.35 1500.16" fill="white"/>
<path d="M1839.63 1378.28C1853.12 1351.24 1905.17 1306.29 1905.17 1306.29L1960.16 1289.99C1960.16 1289.99 1966.11 1466.96 1862.35 1500.16" stroke="black" stroke-width="5.14125" stroke-miterlimit="10" stroke-linecap="round" stroke-linejoin="round"/>
<path d="M1011.06 2620.39C1017.25 2646.48 1101.89 2641.39 1112.03 2596.71C1118.72 2567.29 1139.29 2473.97 1137.64 2484.64L1123.39 2414.49L1042.66 2396.83C1042.66 2396.83 1001.08 2578.07 1011.06 2620.39" fill="black"/>
<path d="M1254.98 1811.05C1240.07 1892.47 1158.93 2101.55 1154.73 2410C1154.26 2443.96 1038.02 2417.87 1038.02 2417.87C1038.02 2417.87 970.221 1898.44 1049.63 1697.09C1073.63 1636.24 1121.33 1585.33 1185.58 1592.16C1261.68 1600.25 1274.91 1702.23 1254.98 1811.05" fill="white"/>
<path d="M1254.98 1811.05C1240.07 1892.47 1158.93 2101.55 1154.73 2410C1154.26 2443.96 1038.02 2417.87 1038.02 2417.87C1038.02 2417.87 970.221 1898.44 1049.63 1697.09C1073.63 1636.24 1121.33 1585.33 1185.58 1592.16C1261.68 1600.25 1274.91 1702.23 1254.98 1811.05V1811.05Z" stroke="black" stroke-width="5.14125" stroke-miterlimit="10"/>
<path d="M889.803 1920.91C864.151 1913.05 874.652 1828.91 919.891 1821.65C949.668 1816.85 1044.12 1802.29 1033.35 1803.25L1102.45 1821.97L1114.92 1903.65C1114.92 1903.65 931.387 1933.57 889.803 1920.91" fill="black"/>
<path d="M1713.08 1729.23C1630.88 1738.89 1417.03 1806.51 1108.94 1790.97C1075.03 1789.27 1093.63 1906.95 1093.63 1906.95C1093.63 1906.95 1607.67 2007.8 1813.67 1941.44C1875.93 1921.37 1929.8 1877.01 1927.08 1812.47C1923.88 1736 1822.95 1716.29 1713.08 1729.23" fill="white"/>
<path d="M1713.08 1729.23C1630.88 1738.89 1417.03 1806.51 1108.94 1790.97C1075.03 1789.27 1093.63 1906.95 1093.63 1906.95C1093.63 1906.95 1607.67 2007.8 1813.67 1941.44C1875.93 1921.37 1929.8 1877.01 1927.08 1812.47C1923.88 1736 1822.95 1716.29 1713.08 1729.23V1729.23Z" stroke="black" stroke-width="5.14125" stroke-miterlimit="10"/>
<path d="M1594.19 941.079L1592.98 997.021C1592.98 997.021 1588.32 1038.15 1544.56 1038.15C1500.8 1038.15 1494.38 997.021 1494.38 997.021L1495.37 946.576C1495.37 946.576 1465.28 935.798 1449.46 901.239C1435.49 870.728 1418.36 782.797 1417.28 726.123C1415.8 654.739 1517.6 658.786 1517.6 658.786C1517.6 658.786 1626.75 648.711 1643.46 709.116C1655.11 751.181 1648.67 865.26 1636.54 901.239C1626.62 930.674 1594.19 941.079 1594.19 941.079Z" fill="white"/>
<path d="M1594.19 941.079L1592.98 997.021C1592.98 997.021 1588.32 1038.15 1544.56 1038.15C1500.8 1038.15 1494.38 997.021 1494.38 997.021L1495.37 946.576C1495.37 946.576 1465.28 935.798 1449.46 901.239C1435.49 870.728 1418.36 782.797 1417.28 726.123C1415.8 654.739 1517.6 658.786 1517.6 658.786C1517.6 658.786 1626.75 648.711 1643.46 709.116C1655.11 751.181 1648.67 865.26 1636.54 901.239C1626.62 930.674 1594.19 941.079 1594.19 941.079Z" stroke="black" stroke-width="5.14124" stroke-miterlimit="10"/>
<path d="M1437.82 850.488C1437.82 850.488 1434.39 862.055 1420.48 858.299C1413.2 856.332 1403.18 840.236 1403.12 820.723C1403.03 788.178 1429.69 777.655 1437.82 802.321" fill="white"/>
<path d="M1437.82 850.488C1437.82 850.488 1434.39 862.055 1420.48 858.299C1413.2 856.332 1403.18 840.236 1403.12 820.723C1403.03 788.178 1429.69 777.655 1437.82 802.321" stroke="black" stroke-width="5.14128" stroke-miterlimit="10" stroke-linecap="round"/>
<path d="M1642.18 850.488C1642.18 850.488 1649.6 861.2 1659.52 858.041C1666.72 855.763 1676.84 840.236 1676.89 820.723C1676.99 788.178 1650.33 777.655 1642.18 802.321" fill="white"/>
<path d="M1642.18 850.488C1642.18 850.488 1649.6 861.2 1659.52 858.041C1666.72 855.763 1676.84 840.236 1676.89 820.723C1676.99 788.178 1650.33 777.655 1642.18 802.321" stroke="black" stroke-width="5.14128" stroke-miterlimit="10" stroke-linecap="round"/>
<path d="M1602.75 937.387C1579.16 943.933 1517.76 942.92 1517.76 942.92C1517.76 942.92 1546.07 965.573 1558.79 966.52C1571.49 967.467 1602.75 937.387 1602.75 937.387" fill="black"/>
<path d="M1454.11 592.991C1420.58 596.783 1398.85 648.914 1384.7 682.112C1365.1 728.139 1423.73 797.513 1423.73 797.513C1423.73 797.513 1432.78 820.83 1440.35 820.712C1447.95 820.608 1439.11 743.975 1458.39 732.243C1514.94 759.397 1592.06 747.664 1608.77 696.245C1625.47 644.84 1628.78 611.39 1593.79 594.68C1549.06 573.318 1485.61 589.465 1454.11 592.991" fill="black"/>
<path d="M1613.86 611.428C1640.88 598.159 1689.6 634.271 1689.73 686.407C1689.84 727.548 1667.9 770.712 1653.74 802.337C1646.19 819.227 1640.71 827.379 1636.54 827.584C1624.55 828.229 1646.03 723.325 1591.19 702.286C1536.36 681.276 1586.84 624.682 1613.86 611.428" fill="black"/>
<path d="M1444.09 1358.8C1502.6 1334.33 1638.16 1269.77 1638.16 1269.77C1638.16 1269.77 1694.21 1298.89 1734.91 1396.23C1775.6 1493.57 1777.69 1595.25 1701.8 1626.99C1657.31 1645.59 1614.91 1639.95 1565.07 1659.32C1515.24 1678.71 1516.73 1782.67 1402.11 1830.59C1283.34 1880.24 1161.72 1793.77 1107.71 1664.55C1053.68 1535.35 1092.87 1399.65 1193.63 1357.53C1297.93 1313.93 1372.89 1388.56 1444.09 1358.8Z" fill="#231F20"/>
<path d="M1416.12 1332.08C1474.64 1307.6 1481.99 1266.39 1526.48 1247.79C1602.37 1216.05 1669.76 1280.56 1710.45 1377.91C1751.16 1475.24 1749.72 1568.52 1673.83 1600.25C1629.33 1618.85 1575.23 1593.4 1525.39 1612.79C1475.56 1632.17 1475.92 1750.83 1361.29 1798.73C1260.53 1840.87 1148.13 1764.8 1094.1 1635.59C1040.09 1506.36 1064.9 1372.93 1165.66 1330.81C1269.96 1287.2 1344.93 1361.81 1416.12 1332.08" fill="#FFDB2D"/>
<path d="M1416.12 1332.08C1474.64 1307.6 1481.99 1266.39 1526.48 1247.79C1602.37 1216.05 1669.76 1280.56 1710.45 1377.91C1751.16 1475.24 1749.72 1568.52 1673.83 1600.25C1629.33 1618.85 1575.23 1593.4 1525.39 1612.79C1475.56 1632.17 1475.92 1750.83 1361.29 1798.73C1260.53 1840.87 1148.13 1764.8 1094.1 1635.59C1040.09 1506.36 1064.9 1372.93 1165.66 1330.81C1269.96 1287.2 1344.93 1361.81 1416.12 1332.08V1332.08Z" stroke="black" stroke-width="5.14125" stroke-miterlimit="10" stroke-linecap="round" stroke-linejoin="round"/>
<path d="M1434.48 1397.73C1389.55 1416.52 1368.36 1468.15 1387.13 1513.08C1405.92 1558 1457.56 1579.19 1502.48 1560.41C1547.4 1541.64 1568.6 1489.97 1549.81 1445.07C1531.04 1400.15 1479.4 1378.96 1434.48 1397.73Z" fill="white"/>
<path d="M1434.48 1397.73C1389.55 1416.52 1368.36 1468.15 1387.13 1513.08C1405.92 1558 1457.56 1579.19 1502.48 1560.41C1547.4 1541.64 1568.6 1489.97 1549.81 1445.07C1531.04 1400.15 1479.4 1378.96 1434.48 1397.73Z" stroke="black" stroke-width="5.14125" stroke-miterlimit="10" stroke-linecap="round" stroke-linejoin="round"/>
<path d="M1446.48 1426.44C1417.4 1438.6 1403.69 1472 1415.85 1501.08C1428 1530.13 1461.41 1543.85 1490.48 1531.69C1519.55 1519.55 1533.27 1486.13 1521.11 1457.07C1508.96 1428 1475.55 1414.28 1446.48 1426.44" fill="#231F20"/>
<path d="M1286.42 1476.49L1342.43 1610.47L1380.29 1594.64L1324.29 1460.67L1286.42 1476.49Z" fill="white"/>
<path d="M1286.42 1476.49L1342.43 1610.47L1380.29 1594.64L1324.29 1460.67L1286.42 1476.49Z" stroke="black" stroke-width="5.14125" stroke-miterlimit="10" stroke-linecap="round" stroke-linejoin="round"/>
<path d="M1360.75 1576.92L1361.48 1578.64C1363.45 1583.32 1361.16 1588.87 1356.47 1590.83C1351.77 1592.8 1346.24 1590.52 1344.25 1585.84L1343.55 1584.11C1341.59 1579.41 1343.87 1573.87 1348.56 1571.91C1353.25 1569.95 1358.8 1572.23 1360.75 1576.92Z" fill="#231F20"/>
<path d="M1350.24 1546.95C1352.2 1551.63 1349.93 1557.17 1345.24 1559.13L1343.52 1559.85C1338.83 1561.81 1333.28 1559.55 1331.32 1554.84C1329.36 1550.16 1331.63 1544.61 1336.32 1542.64L1338.04 1541.92C1342.75 1539.96 1348.28 1542.24 1350.24 1546.95Z" fill="#231F20"/>
<path d="M1335.57 1516.67C1340.21 1527.77 1323 1534.96 1318.36 1523.87C1313.72 1512.77 1330.94 1505.57 1335.57 1516.67Z" fill="#231F20"/>
<path d="M1323.33 1487.41C1327.98 1498.51 1310.77 1505.71 1306.13 1494.6C1301.5 1483.51 1318.69 1476.31 1323.33 1487.41Z" fill="#231F20"/>
<path d="M2007.07 1198.56L2031.55 1257.07L1505.53 1507.25L1471.37 1425.52L2007.07 1198.56" fill="#231F20"/>
<path d="M2032.98 1168.18L2007.06 1198.57L2031.54 1257.07L2073.62 1265.36C2073.62 1265.36 2105.16 1238.42 2142.16 1222.98C2179.16 1207.49 2219.9 1204.19 2219.9 1204.19L2251.73 1165.83L2228.95 1111.32L2179.28 1107.01C2179.28 1107.01 2149.67 1128.83 2109.77 1145.51C2069.9 1162.17 2032.98 1168.18 2032.98 1168.18" fill="#231F20"/>
<path d="M2140.51 1109.37C2133.87 1112.16 2129.28 1116.35 2130.27 1118.73C2131.27 1121.09 2137.45 1120.77 2144.11 1117.99C2150.77 1115.2 2155.36 1111.03 2154.37 1108.65C2153.37 1106.27 2147.17 1106.6 2140.51 1109.37Z" fill="#231F20"/>
<path d="M2146.24 1135.97L2137.73 1115.6L2147.48 1111.53L2155.99 1131.89L2146.24 1135.97" fill="#231F20"/>
<path d="M2063.99 1140.72C2057.32 1143.51 2052.73 1147.68 2053.72 1150.05C2054.72 1152.45 2060.92 1152.11 2067.57 1149.33C2074.24 1146.55 2078.83 1142.37 2077.83 1139.99C2076.84 1137.61 2070.63 1137.93 2063.99 1140.72Z" fill="#231F20"/>
<path d="M2069.69 1167.31L2061.19 1146.95L2070.93 1142.87L2079.45 1163.23L2069.69 1167.31Z" fill="#231F20"/>
<path d="M2099.55 1125.84C2092.89 1128.64 2088.31 1132.81 2089.31 1135.2C2090.29 1137.56 2096.49 1137.24 2103.15 1134.45C2109.8 1131.67 2114.39 1127.49 2113.39 1125.12C2112.4 1122.73 2106.2 1123.07 2099.55 1125.84Z" fill="#231F20"/>
<path d="M2105.28 1152.44L2096.75 1132.08L2106.52 1127.99L2115.01 1148.36L2105.28 1152.44" fill="#231F20"/>
<path d="M2191.13 1230.39C2184.45 1233.17 2178.26 1233.5 2177.28 1231.13C2176.28 1228.74 2180.86 1224.56 2187.52 1221.78C2194.17 1219.01 2200.37 1218.67 2201.37 1221.04C2202.37 1223.42 2197.79 1227.6 2191.13 1230.39Z" fill="#231F20"/>
<path d="M2176.2 1207.66L2184.72 1228.02L2194.46 1223.94L2185.95 1203.57L2176.2 1207.66" fill="#231F20"/>
<path d="M2115.04 1262.87C2108.39 1265.64 2102.17 1265.96 2101.19 1263.6C2100.19 1261.21 2104.79 1257.03 2111.44 1254.24C2118.09 1251.47 2124.29 1251.15 2125.29 1253.51C2126.28 1255.89 2121.69 1260.08 2115.04 1262.87Z" fill="#231F20"/>
<path d="M2100.13 1240.11L2108.64 1260.48L2118.39 1256.4L2109.88 1236.03L2100.13 1240.11Z" fill="#231F20"/>
<path d="M2150.61 1247.97C2143.95 1250.77 2137.76 1251.09 2136.76 1248.71C2135.77 1246.33 2140.35 1242.16 2147.01 1239.37C2153.67 1236.6 2159.87 1236.25 2160.85 1238.64C2161.85 1241.01 2157.25 1245.2 2150.61 1247.97Z" fill="#231F20"/>
<path d="M2135.71 1225.24L2144.23 1245.6L2153.99 1241.52L2145.45 1221.16L2135.71 1225.24Z" fill="#231F20"/>
<path d="M1933.6 1239.4C1878.84 1268.85 1882.6 1295.75 1903.89 1324.95C1911.83 1335.85 1935.08 1315.25 1966.88 1301.16C1982.08 1294.41 1984.96 1277.12 1980.32 1264.45C1972.57 1243.25 1964.24 1222.92 1933.6 1239.4" fill="white"/>
<path d="M1933.6 1239.4C1878.84 1268.85 1882.6 1295.75 1903.89 1324.95C1911.83 1335.85 1935.08 1315.25 1966.88 1301.16C1982.08 1294.41 1984.96 1277.12 1980.32 1264.45C1972.57 1243.25 1964.24 1222.92 1933.6 1239.4V1239.4Z" stroke="black" stroke-width="5.14125" stroke-miterlimit="10" stroke-linecap="round"/>
<path d="M1383.16 1386.04C1380.83 1408.84 1379.61 1431.68 1380.93 1454.57C1438.28 1459.27 1479.59 1459.72 1479.59 1459.72L1482.68 1423.72C1482.68 1423.72 1438.52 1409.67 1383.16 1386.04Z" fill="white"/>
<path d="M1383.16 1386.04C1380.83 1408.84 1379.61 1431.68 1380.93 1454.57C1438.28 1459.27 1479.59 1459.72 1479.59 1459.72L1482.68 1423.72C1482.68 1423.72 1438.52 1409.67 1383.16 1386.04Z" stroke="black" stroke-width="5.14125" stroke-miterlimit="10"/>
<path d="M1474.15 1459.63C1474.15 1459.63 1552.97 1498.41 1569.45 1495.91C1585.95 1493.36 1602.31 1466.44 1589.84 1459.65C1577.37 1452.84 1523.67 1423.31 1515.75 1420.72C1503.95 1416.87 1480.07 1420.96 1468.81 1419.08" fill="white"/>
<path d="M1474.15 1459.63C1474.15 1459.63 1552.97 1498.41 1569.45 1495.91C1585.95 1493.36 1602.31 1466.44 1589.84 1459.65C1577.37 1452.84 1523.67 1423.31 1515.75 1420.72C1503.95 1416.87 1480.07 1420.96 1468.81 1419.08" stroke="black" stroke-width="5.14125" stroke-miterlimit="10" stroke-linecap="round"/>
<path d="M1380.29 1251.92C1380.29 1251.92 1338.09 1298.99 1344.72 1328.01C1354.57 1371.27 1411.43 1395.07 1411.43 1395.07L1397.79 1460.67C1397.79 1460.67 1222.66 1495.39 1193.63 1357.53C1154.09 1169.75 1397.79 999.094 1487.31 999.094" fill="white"/>
<path d="M1380.29 1251.92C1380.29 1251.92 1338.09 1298.99 1344.72 1328.01C1354.57 1371.27 1411.43 1395.07 1411.43 1395.07L1397.79 1460.67C1397.79 1460.67 1222.66 1495.39 1193.63 1357.53C1154.09 1169.75 1397.79 999.094 1487.31 999.094" stroke="black" stroke-width="5.14125" stroke-miterlimit="10" stroke-linecap="round" stroke-linejoin="round"/>
</g>
<defs>
<clipPath id="clip0">
<rect width="2678.67" height="2988" fill="white"/>
</clipPath>
</defs>
</svg>
