<svg width="16" height="16" viewBox="0 0 16 16" fill="none" xmlns="http://www.w3.org/2000/svg">
<g clip-path="url(#clip0)">
<path d="M13.6574 2.34293C10.5331 -0.780965 5.46764 -0.781313 2.34305 2.34293C-0.781191 5.46717 -0.780843 10.5327 2.34305 13.6573C5.46729 16.7808 10.5328 16.7812 13.6574 13.6573C16.7813 10.5327 16.7809 5.46752 13.6574 2.34293ZM9.04337 11.4784C9.04337 12.0548 8.57623 12.5219 7.99987 12.5219C7.42351 12.5219 6.95637 12.0548 6.95637 11.4784V7.30443C6.95637 6.72807 7.42351 6.26093 7.99987 6.26093C8.57623 6.26093 9.04337 6.72807 9.04337 7.30443V11.4784ZM7.98143 5.52074C7.38038 5.52074 6.97967 5.09499 6.9922 4.56941C6.97967 4.01844 7.38038 3.60556 7.99361 3.60556C8.60719 3.60556 8.99537 4.01879 9.00824 4.56941C9.00789 5.09499 8.60753 5.52074 7.98143 5.52074Z" fill="white"/>
</g>
<defs>
<clipPath id="clip0">
<rect width="16" height="16" fill="white"/>
</clipPath>
</defs>
</svg>
