<svg width="24" height="24" viewBox="0 0 24 24" fill="none" xmlns="http://www.w3.org/2000/svg">
<path d="M21.6 0H7.2C5.87402 0 4.79999 1.07398 4.79999 2.40002V16.8C4.79999 18.126 5.87397 19.2 7.2 19.2H21.6C22.926 19.2 24 18.126 24 16.8V2.40002C24 1.07398 22.926 0 21.6 0ZM19.2 6.00001H15.6V12.6C15.6 14.256 14.256 15.6 12.6 15.6C10.944 15.6 9.60002 14.256 9.60002 12.6C9.60002 10.944 10.944 9.60001 12.6 9.60001C13.278 9.60001 13.896 9.83401 14.4 10.212V3.6H19.2V6.00001V6.00001Z" fill="#FFA600"/>
<path d="M2.40002 4.79996H0V21.6C0 22.9259 1.07398 24 2.40002 24H19.2V21.6H2.40002V4.79996Z" fill="#FFA600"/>
</svg>
