<svg width="152" height="32" viewBox="0 0 152 32" fill="none" xmlns="http://www.w3.org/2000/svg">
<path d="M26.5866 24.5334C29.7013 24.5334 32.2262 21.9068 32.2262 18.6667C32.2262 15.4267 29.7013 12.8 26.5866 12.8C23.4719 12.8 20.947 15.4267 20.947 18.6667C20.947 21.9068 23.4719 24.5334 26.5866 24.5334Z" fill="#FFDB2D"/>
<path d="M26.2379 14.2265C26.1215 14.218 26.0058 14.2139 25.8909 14.2139C28.2844 14.5603 30.0381 16.6506 29.863 19.0344C29.6879 21.4182 27.6472 23.2336 25.2285 23.2315C25.3422 23.248 25.4573 23.2606 25.5737 23.2691C28.1414 23.4551 30.3717 21.5816 30.5551 19.0845C30.7386 16.5875 28.8057 14.4124 26.2379 14.2265Z" fill="#FFCA00"/>
<path d="M15.0045 7.67993C15.4858 7.67993 15.8725 7.825 16.1647 8.11513C16.4568 8.40526 16.6029 8.78073 16.6029 9.24153V24.0383C16.6029 24.4821 16.4482 24.8575 16.1389 25.1647C15.8295 25.4549 15.4342 25.5999 14.953 25.5999C14.5233 25.5999 14.1537 25.4549 13.8444 25.1647C13.535 24.8575 13.3803 24.4821 13.3803 24.0383V18.0735H5.15621V24.0383C5.15621 24.4821 4.99293 24.8575 4.66637 25.1647C4.33981 25.4549 3.96169 25.5999 3.53201 25.5999C3.06795 25.5999 2.68124 25.4549 2.37187 25.1647C2.07969 24.8575 1.93359 24.4821 1.93359 24.0383V9.24153C1.93359 8.7978 2.08828 8.43087 2.39765 8.14073C2.70702 7.83353 3.10233 7.67993 3.58357 7.67993C4.01325 7.67993 4.38278 7.83353 4.69215 8.14073C5.00152 8.43087 5.15621 8.7978 5.15621 9.24153V15.1295H13.3803V9.24153C13.3803 8.7978 13.5436 8.43087 13.8702 8.14073C14.1967 7.83353 14.5748 7.67993 15.0045 7.67993ZM33.4572 18.7647C33.4572 20.1301 33.1478 21.3589 32.5291 22.4511C31.9104 23.5263 31.0596 24.3626 29.9768 24.9599C28.9112 25.5573 27.7338 25.8559 26.4448 25.8559C25.1386 25.8559 23.9526 25.5573 22.887 24.9599C21.8214 24.3626 20.9792 23.5263 20.3605 22.4511C19.7418 21.3589 19.4324 20.1301 19.4324 18.7647C19.4324 17.3994 19.7418 16.1791 20.3605 15.1039C20.9792 14.0117 21.8214 13.1669 22.887 12.5695C23.9526 11.9551 25.1386 11.6479 26.4448 11.6479C27.7338 11.6479 28.9112 11.9551 29.9768 12.5695C31.0596 13.1669 31.9104 14.0117 32.5291 15.1039C33.1478 16.1791 33.4572 17.3994 33.4572 18.7647ZM30.3635 18.7647C30.3635 17.9285 30.183 17.1861 29.8221 16.5375C29.4784 15.8719 29.0057 15.3599 28.4041 15.0015C27.8198 14.6431 27.1667 14.4639 26.4448 14.4639C25.7229 14.4639 25.0612 14.6431 24.4597 15.0015C23.8753 15.3599 23.4027 15.8719 23.0417 16.5375C22.698 17.1861 22.5261 17.9285 22.5261 18.7647C22.5261 19.601 22.698 20.3434 23.0417 20.9919C23.4027 21.6405 23.8753 22.1439 24.4597 22.5023C25.0612 22.8607 25.7229 23.0399 26.4448 23.0399C27.1667 23.0399 27.8198 22.8607 28.4041 22.5023C29.0057 22.1439 29.4784 21.6405 29.8221 20.9919C30.183 20.3434 30.3635 19.601 30.3635 18.7647ZM43.1833 11.6479C44.3692 11.6479 45.4434 11.9551 46.4059 12.5695C47.3684 13.1669 48.1246 14.0031 48.6746 15.0783C49.2418 16.1535 49.5254 17.3738 49.5254 18.7391C49.5254 20.1045 49.2504 21.3333 48.7004 22.4255C48.1504 23.5007 47.3942 24.3455 46.4317 24.9599C45.4864 25.5573 44.4379 25.8559 43.2864 25.8559C42.4614 25.8559 41.6794 25.6938 40.9403 25.3695C40.2185 25.0282 39.6169 24.6186 39.1357 24.1407V29.1583C39.1357 29.6021 38.9896 29.969 38.6974 30.2591C38.4052 30.5663 38.0357 30.7199 37.5888 30.7199C37.1419 30.7199 36.7724 30.5749 36.4802 30.2847C36.1881 29.9946 36.042 29.6191 36.042 29.1583V13.4655C36.042 13.0218 36.1881 12.6549 36.4802 12.3647C36.7724 12.0575 37.1419 11.9039 37.5888 11.9039C38.0357 11.9039 38.4052 12.0575 38.6974 12.3647C38.9896 12.6549 39.1357 13.0218 39.1357 13.4655V13.5679C39.5482 13.0559 40.1239 12.6122 40.863 12.2367C41.602 11.8442 42.3755 11.6479 43.1833 11.6479ZM42.7966 23.0399C43.8965 23.0399 44.7989 22.6303 45.5036 21.8111C46.2082 20.9919 46.5606 19.9679 46.5606 18.7391C46.5606 17.5103 46.2082 16.4949 45.5036 15.6927C44.8161 14.8735 43.9137 14.4639 42.7966 14.4639C41.6794 14.4639 40.7685 14.8735 40.0638 15.6927C39.3591 16.4949 39.0068 17.5103 39.0068 18.7391C39.0068 19.9679 39.3591 20.9919 40.0638 21.8111C40.7685 22.6303 41.6794 23.0399 42.7966 23.0399ZM64.4797 18.4319C64.4625 18.8415 64.2992 19.1743 63.9899 19.4303C63.6805 19.6863 63.3196 19.8143 62.9071 19.8143H54.3994C54.6056 20.8213 55.0783 21.6149 55.8173 22.1951C56.5564 22.7583 57.39 23.0399 58.3181 23.0399C59.0227 23.0399 59.5727 22.9802 59.968 22.8607C60.3634 22.7242 60.6727 22.5877 60.8962 22.4511C61.1368 22.2975 61.3001 22.1951 61.386 22.1439C61.6954 21.9903 61.9875 21.9135 62.2625 21.9135C62.6235 21.9135 62.9329 22.0415 63.1907 22.2975C63.4485 22.5535 63.5774 22.8522 63.5774 23.1935C63.5774 23.6543 63.3368 24.0725 62.8555 24.4479C62.3743 24.8405 61.7297 25.1733 60.9219 25.4463C60.1141 25.7194 59.2977 25.8559 58.4728 25.8559C57.029 25.8559 55.7658 25.5573 54.683 24.9599C53.6171 24.3626 52.7921 23.5434 52.2078 22.5023C51.6234 21.4442 51.3312 20.2581 51.3312 18.9439C51.3312 17.4762 51.6406 16.1877 52.2593 15.0783C52.8781 13.969 53.6945 13.1242 54.7087 12.5439C55.7228 11.9466 56.8056 11.6479 57.9571 11.6479C59.0915 11.6479 60.1571 11.9551 61.154 12.5695C62.168 13.1839 62.9758 14.0117 63.5774 15.0527C64.1789 16.0938 64.4797 17.2202 64.4797 18.4319ZM57.9571 14.4639C55.9634 14.4639 54.7861 15.3941 54.4252 17.2543H61.1797V17.0751C61.111 16.3583 60.7587 15.7439 60.1227 15.2319C59.4868 14.7199 58.7649 14.4639 57.9571 14.4639Z" fill="#FFA600"/>
<path d="M81.9939 7.68001C82.8705 7.68001 83.704 7.94454 84.4946 8.47361C85.2853 8.98561 85.9212 9.68534 86.4024 10.5728C86.8837 11.4432 87.1243 12.3989 87.1243 13.44C87.1243 14.464 86.8837 15.4197 86.4024 16.3072C85.9212 17.1947 85.2853 17.9029 84.4946 18.432C83.704 18.944 82.8705 19.2 81.9939 19.2H77.508V24.0384C77.508 24.4992 77.3705 24.8747 77.0955 25.1648C76.8205 25.4549 76.4596 25.6 76.0122 25.6C75.583 25.6 75.2307 25.4549 74.9557 25.1648C74.6807 24.8576 74.5432 24.4821 74.5432 24.0384V9.24161C74.5432 8.79787 74.6893 8.43094 74.9815 8.14081C75.2909 7.83361 75.669 7.68001 76.1159 7.68001H81.9939ZM81.9939 16.2816C82.3205 16.2816 82.6384 16.1451 82.9478 15.872C83.2744 15.5989 83.5322 15.2491 83.7212 14.8224C83.9275 14.3787 84.0306 13.9179 84.0306 13.44C84.0306 12.9621 83.9275 12.5099 83.7212 12.0832C83.5322 11.6395 83.2744 11.2896 82.9478 11.0336C82.6384 10.7605 82.3205 10.624 81.9939 10.624H77.508V16.2816H81.9939ZM93.1705 24.0384C93.1705 24.4821 93.0158 24.8576 92.7064 25.1648C92.4142 25.4549 92.0447 25.6 91.5978 25.6C91.1681 25.6 90.8072 25.4549 90.515 25.1648C90.2228 24.8576 90.0768 24.4821 90.0768 24.0384V8.21761C90.0768 7.77387 90.2228 7.40694 90.515 7.11681C90.8244 6.80961 91.2025 6.65601 91.6494 6.65601C92.0791 6.65601 92.44 6.80961 92.7322 7.11681C93.0244 7.40694 93.1705 7.77387 93.1705 8.21761V24.0384ZM107.931 11.648C108.378 11.648 108.748 11.7931 109.04 12.0832C109.332 12.3733 109.478 12.7488 109.478 13.2096V24.0384C109.478 24.4821 109.332 24.8576 109.04 25.1648C108.748 25.4549 108.378 25.6 107.931 25.6C107.484 25.6 107.115 25.4549 106.823 25.1648C106.548 24.8747 106.401 24.5077 106.384 24.064C105.955 24.5589 105.37 24.9856 104.631 25.344C103.909 25.6853 103.144 25.856 102.337 25.856C101.151 25.856 100.077 25.5573 99.114 24.96C98.1516 24.3456 97.3867 23.5008 96.8195 22.4256C96.2696 21.3504 95.9946 20.1301 95.9946 18.7648C95.9946 17.3995 96.2696 16.1792 96.8195 15.104C97.3695 14.0117 98.1172 13.1669 99.0625 12.5696C100.025 11.9552 101.082 11.648 102.234 11.648C103.059 11.648 103.832 11.8016 104.554 12.1088C105.276 12.3989 105.886 12.7744 106.384 13.2352V13.2096C106.384 12.7659 106.53 12.3989 106.823 12.1088C107.115 11.8016 107.484 11.648 107.931 11.648ZM102.723 23.04C103.841 23.04 104.751 22.6389 105.456 21.8368C106.161 21.0176 106.513 19.9936 106.513 18.7648C106.513 17.536 106.161 16.512 105.456 15.6928C104.751 14.8736 103.841 14.464 102.723 14.464C101.623 14.464 100.721 14.8736 100.016 15.6928C99.3117 16.512 98.9594 17.536 98.9594 18.7648C98.9594 19.9936 99.3031 21.0176 99.9906 21.8368C100.695 22.6389 101.606 23.04 102.723 23.04ZM122.764 11.904C123.211 11.904 123.58 12.0576 123.872 12.3648C124.165 12.6549 124.311 13.0219 124.311 13.4656V24.3456C124.311 26.5643 123.709 28.1771 122.506 29.184C121.303 30.208 119.696 30.72 117.685 30.72C117.101 30.72 116.499 30.6688 115.88 30.5664C115.279 30.4811 114.789 30.3616 114.411 30.208C113.569 29.8496 113.147 29.3547 113.147 28.7232C113.147 28.6037 113.173 28.4672 113.225 28.3136C113.328 27.9381 113.5 27.648 113.74 27.4432C113.998 27.2555 114.273 27.1616 114.565 27.1616C114.737 27.1616 114.901 27.1872 115.055 27.2384C115.176 27.2896 115.382 27.3749 115.674 27.4944C115.983 27.6139 116.301 27.7077 116.628 27.776C116.972 27.8613 117.324 27.904 117.685 27.904C118.905 27.904 119.799 27.6395 120.366 27.1104C120.95 26.5984 121.243 25.7109 121.243 24.448V24.192C120.349 25.3013 118.957 25.856 117.066 25.856C116.172 25.856 115.382 25.6512 114.694 25.2416C114.007 24.8149 113.474 24.2347 113.096 23.5008C112.718 22.7499 112.529 21.8965 112.529 20.9408V13.4656C112.529 13.0219 112.675 12.6549 112.967 12.3648C113.259 12.0576 113.629 11.904 114.076 11.904C114.522 11.904 114.892 12.0576 115.184 12.3648C115.476 12.6549 115.622 13.0219 115.622 13.4656V20.0192C115.622 21.0944 115.854 21.8709 116.319 22.3488C116.8 22.8096 117.496 23.04 118.407 23.04C119.301 23.04 119.988 22.784 120.469 22.272C120.968 21.7429 121.217 20.992 121.217 20.0192V13.4656C121.217 13.0219 121.363 12.6549 121.655 12.3648C121.947 12.0576 122.317 11.904 122.764 11.904ZM139.909 18.432C139.891 18.8416 139.728 19.1744 139.419 19.4304C139.109 19.6864 138.748 19.8144 138.336 19.8144H129.828C130.035 20.8213 130.507 21.6149 131.246 22.1952C131.985 22.7584 132.819 23.04 133.747 23.04C134.452 23.04 135.002 22.9803 135.397 22.8608C135.792 22.7243 136.102 22.5877 136.325 22.4512C136.566 22.2976 136.729 22.1952 136.815 22.144C137.124 21.9904 137.416 21.9136 137.691 21.9136C138.052 21.9136 138.362 22.0416 138.62 22.2976C138.877 22.5536 139.006 22.8523 139.006 23.1936C139.006 23.6544 138.766 24.0725 138.284 24.448C137.803 24.8405 137.159 25.1733 136.351 25.4464C135.543 25.7195 134.727 25.856 133.902 25.856C132.458 25.856 131.195 25.5573 130.112 24.96C129.046 24.3627 128.221 23.5435 127.637 22.5024C127.053 21.4443 126.76 20.2581 126.76 18.944C126.76 17.4763 127.07 16.1877 127.688 15.0784C128.307 13.9691 129.124 13.1243 130.138 12.544C131.152 11.9467 132.234 11.648 133.386 11.648C134.52 11.648 135.586 11.9552 136.583 12.5696C137.597 13.184 138.405 14.0117 139.006 15.0528C139.608 16.0939 139.909 17.2203 139.909 18.432ZM133.386 14.464C131.392 14.464 130.215 15.3941 129.854 17.2544H136.609V17.0752C136.54 16.3584 136.188 15.744 135.552 15.232C134.916 14.72 134.194 14.464 133.386 14.464ZM149.656 11.648C150.172 11.648 150.601 11.7931 150.945 12.0832C151.306 12.3733 151.486 12.7147 151.486 13.1072C151.486 13.6363 151.349 14.0373 151.074 14.3104C150.799 14.5664 150.472 14.6944 150.094 14.6944C149.836 14.6944 149.544 14.6347 149.218 14.5152C149.166 14.4981 149.046 14.464 148.857 14.4128C148.685 14.3616 148.496 14.336 148.29 14.336C147.843 14.336 147.413 14.4725 147 14.7456C146.588 15.0187 146.244 15.4368 145.969 16C145.711 16.5461 145.583 17.2032 145.583 17.9712V24.0384C145.583 24.4821 145.436 24.8576 145.144 25.1648C144.852 25.4549 144.483 25.6 144.036 25.6C143.589 25.6 143.219 25.4549 142.927 25.1648C142.635 24.8576 142.489 24.4821 142.489 24.0384V13.4656C142.489 13.0219 142.635 12.6549 142.927 12.3648C143.219 12.0576 143.589 11.904 144.036 11.904C144.483 11.904 144.852 12.0576 145.144 12.3648C145.436 12.6549 145.583 13.0219 145.583 13.4656V13.7984C145.978 13.0987 146.545 12.5696 147.284 12.2112C148.023 11.8357 148.814 11.648 149.656 11.648Z" fill="white"/>
<path d="M28.409 16.5771C28.3723 16.5448 28.3236 16.5293 28.2749 16.5344L25.1673 16.8772C25.0798 16.8868 25.0137 16.9603 25.0137 17.0476V20.1027C24.8572 20.0097 24.6781 19.961 24.4958 19.9619C24.0198 19.9619 23.6326 20.2695 23.6326 20.6476C23.6326 21.0258 24.0198 21.3333 24.4957 21.3333C24.9717 21.3333 25.359 21.026 25.359 20.6476V18.0591L28.1212 17.7536V19.7593C27.9647 19.6665 27.7856 19.618 27.6033 19.6191C27.1273 19.6191 26.7401 19.9266 26.7401 20.3048C26.7401 20.6829 27.1273 20.9905 27.6033 20.9905C28.0792 20.9905 28.4665 20.6831 28.4665 20.3048V16.7048C28.4665 16.656 28.4456 16.6096 28.409 16.5771Z" fill="#08124E"/>
</svg>
