<svg width="169" height="36" viewBox="0 0 169 36" fill="none" xmlns="http://www.w3.org/2000/svg">
<path d="M35.7071 21.2068L31.8561 17.8099L35.5709 14.2662C35.7074 14.136 35.7635 13.9434 35.7185 13.7607C35.6733 13.5781 35.5336 13.4334 35.3521 13.381L30.408 11.9542L32.2353 7.16899C32.3024 6.99321 32.2701 6.79521 32.1506 6.64945C32.0311 6.50377 31.8424 6.43254 31.6557 6.46263L26.574 7.28191L26.1607 2.17997C26.1455 1.99252 26.0309 1.82735 25.8601 1.74677C25.6893 1.6662 25.4881 1.6823 25.3325 1.78903L21.095 4.69589L18.521 0.263109C18.4264 0.100266 18.2517 0 18.0625 0C17.8734 0 17.6987 0.100266 17.6041 0.263109L14.6494 5.35148L9.53839 2.40166C9.37477 2.30723 9.17297 2.30681 9.00908 2.4004C8.84504 2.49398 8.74379 2.66752 8.74329 2.85553L8.73092 7.97393L3.60057 7.55107C3.41248 7.5356 3.22967 7.62117 3.12195 7.77565C3.01416 7.93012 2.99743 8.13009 3.07822 8.30011L5.27492 12.9291L0.457599 14.7348C0.280692 14.8011 0.152794 14.9563 0.121997 15.1419C0.0912001 15.3274 0.162427 15.5151 0.308747 15.6343L4.28977 18.8793L0.716981 22.5644C0.585778 22.6998 0.537052 22.8945 0.589294 23.0752C0.641606 23.2559 0.786872 23.3951 0.970317 23.4404L5.96637 24.6744L4.32844 29.5268C4.26826 29.705 4.30833 29.9016 4.43349 30.0426C4.55872 30.1835 4.75004 30.2474 4.93531 30.21L9.98094 29.1945L10.5941 34.2766C10.6166 34.4633 10.7376 34.6238 10.9115 34.6977C11.0854 34.7717 11.2857 34.7478 11.437 34.6351L15.5571 31.5662L18.3031 35.7544C18.4003 35.9076 18.5695 35.9999 18.7508 35.9999C18.7577 35.9999 18.7646 35.9998 18.7715 35.9995C18.9605 35.9922 19.1312 35.8852 19.2193 35.7188L21.6174 31.331L25.9655 34.0713C26.1253 34.172 26.3267 34.1803 26.4944 34.0931C26.6619 34.0059 26.7699 33.8365 26.7777 33.6486L26.9909 28.5345L32.1008 29.1561C32.2881 29.1788 32.4741 29.1004 32.5879 28.9503C32.7016 28.8 32.7261 28.6009 32.6521 28.4278L30.6387 23.7171L35.5229 22.0997C35.7024 22.0403 35.8363 21.8903 35.8743 21.706C35.9123 21.522 35.8485 21.3316 35.7071 21.2068Z" fill="#FFA600"/>
<path d="M17.8839 28.8028C23.9057 28.8028 28.7872 23.925 28.7872 17.908C28.7872 11.8909 23.9057 7.01312 17.8839 7.01312C11.8622 7.01312 6.98065 11.8909 6.98065 17.908C6.98065 23.925 11.8622 28.8028 17.8839 28.8028Z" fill="#FFDB2D"/>
<path d="M17.8843 7.01321C17.6112 7.01321 17.3407 7.02355 17.0727 7.04331C22.7153 7.45822 27.1643 12.1638 27.1643 17.9081C27.1643 23.6522 22.7153 28.3578 17.0727 28.7728C17.3407 28.7925 17.6113 28.8029 17.8843 28.8029C23.906 28.8029 28.7875 23.9251 28.7875 17.9081C28.7875 11.891 23.906 7.01321 17.8843 7.01321Z" fill="#FFCA00"/>
<g clip-path="url(#clip0)">
<path d="M22.8517 12.1308C22.762 12.0515 22.6431 12.0134 22.5239 12.0258L14.9302 12.8695C14.7164 12.8932 14.5547 13.0738 14.5547 13.2889V20.8071C14.1723 20.5783 13.7347 20.4585 13.2891 20.4608C12.126 20.4608 11.1797 21.2176 11.1797 22.1483C11.1797 23.0789 12.126 23.8358 13.2891 23.8358C14.4521 23.8358 15.3984 23.0793 15.3984 22.1483V15.778L22.1484 15.0262V19.9621C21.7659 19.7338 21.3283 19.6144 20.8828 19.617C19.7197 19.617 18.7734 20.3739 18.7734 21.3045C18.7734 22.2352 19.7197 22.992 20.8828 22.992C22.0459 22.992 22.9922 22.2356 22.9922 21.3045V12.4451C22.9922 12.3252 22.9411 12.2109 22.8517 12.1308Z" fill="#353B48"/>
</g>
<path d="M59.4 10.96V25H55.98V19.22H50.66V25H47.24V10.96H50.66V16.46H55.98V10.96H59.4ZM66.9489 25.16C65.8556 25.16 64.8689 24.9267 63.9889 24.46C63.1222 23.9933 62.4356 23.3267 61.9289 22.46C61.4356 21.5933 61.1889 20.58 61.1889 19.42C61.1889 18.2733 61.4422 17.2667 61.9489 16.4C62.4556 15.52 63.1489 14.8467 64.0289 14.38C64.9089 13.9133 65.8956 13.68 66.9889 13.68C68.0822 13.68 69.0689 13.9133 69.9489 14.38C70.8289 14.8467 71.5222 15.52 72.0289 16.4C72.5356 17.2667 72.7889 18.2733 72.7889 19.42C72.7889 20.5667 72.5289 21.58 72.0089 22.46C71.5022 23.3267 70.8022 23.9933 69.9089 24.46C69.0289 24.9267 68.0422 25.16 66.9489 25.16ZM66.9489 22.2C67.6022 22.2 68.1556 21.96 68.6089 21.48C69.0756 21 69.3089 20.3133 69.3089 19.42C69.3089 18.5267 69.0822 17.84 68.6289 17.36C68.1889 16.88 67.6422 16.64 66.9889 16.64C66.3222 16.64 65.7689 16.88 65.3289 17.36C64.8889 17.8267 64.6689 18.5133 64.6689 19.42C64.6689 20.3133 64.8822 21 65.3089 21.48C65.7489 21.96 66.2956 22.2 66.9489 22.2ZM78.0233 15.42C78.3566 14.9 78.8166 14.48 79.4033 14.16C79.9899 13.84 80.6766 13.68 81.4633 13.68C82.3833 13.68 83.2166 13.9133 83.9633 14.38C84.7099 14.8467 85.2966 15.5133 85.7233 16.38C86.1633 17.2467 86.3833 18.2533 86.3833 19.4C86.3833 20.5467 86.1633 21.56 85.7233 22.44C85.2966 23.3067 84.7099 23.98 83.9633 24.46C83.2166 24.9267 82.3833 25.16 81.4633 25.16C80.6899 25.16 80.0033 25 79.4033 24.68C78.8166 24.36 78.3566 23.9467 78.0233 23.44V30.32H74.6033V13.84H78.0233V15.42ZM82.9033 19.4C82.9033 18.5467 82.6633 17.88 82.1833 17.4C81.7166 16.9067 81.1366 16.66 80.4433 16.66C79.7633 16.66 79.1833 16.9067 78.7033 17.4C78.2366 17.8933 78.0033 18.5667 78.0033 19.42C78.0033 20.2733 78.2366 20.9467 78.7033 21.44C79.1833 21.9333 79.7633 22.18 80.4433 22.18C81.1233 22.18 81.7033 21.9333 82.1833 21.44C82.6633 20.9333 82.9033 20.2533 82.9033 19.4ZM98.6975 19.24C98.6975 19.56 98.6775 19.8933 98.6375 20.24H90.8975C90.9508 20.9333 91.1708 21.4667 91.5575 21.84C91.9575 22.2 92.4442 22.38 93.0175 22.38C93.8708 22.38 94.4642 22.02 94.7975 21.3H98.4375C98.2508 22.0333 97.9108 22.6933 97.4175 23.28C96.9375 23.8667 96.3308 24.3267 95.5975 24.66C94.8642 24.9933 94.0442 25.16 93.1375 25.16C92.0442 25.16 91.0708 24.9267 90.2175 24.46C89.3642 23.9933 88.6975 23.3267 88.2175 22.46C87.7375 21.5933 87.4975 20.58 87.4975 19.42C87.4975 18.26 87.7308 17.2467 88.1975 16.38C88.6775 15.5133 89.3442 14.8467 90.1975 14.38C91.0508 13.9133 92.0308 13.68 93.1375 13.68C94.2175 13.68 95.1775 13.9067 96.0175 14.36C96.8575 14.8133 97.5108 15.46 97.9775 16.3C98.4575 17.14 98.6975 18.12 98.6975 19.24ZM95.1975 18.34C95.1975 17.7533 94.9975 17.2867 94.5975 16.94C94.1975 16.5933 93.6975 16.42 93.0975 16.42C92.5242 16.42 92.0375 16.5867 91.6375 16.92C91.2508 17.2533 91.0108 17.7267 90.9175 18.34H95.1975ZM115.44 15.48C115.44 16.2933 115.253 17.04 114.88 17.72C114.507 18.3867 113.933 18.9267 113.16 19.34C112.387 19.7533 111.427 19.96 110.28 19.96H108.16V25H104.74V10.96H110.28C111.4 10.96 112.347 11.1533 113.12 11.54C113.893 11.9267 114.473 12.46 114.86 13.14C115.247 13.82 115.44 14.6 115.44 15.48ZM110.02 17.24C110.673 17.24 111.16 17.0867 111.48 16.78C111.8 16.4733 111.96 16.04 111.96 15.48C111.96 14.92 111.8 14.4867 111.48 14.18C111.16 13.8733 110.673 13.72 110.02 13.72H108.16V17.24H110.02ZM120.64 10.2V25H117.22V10.2H120.64ZM122.439 19.4C122.439 18.2533 122.652 17.2467 123.079 16.38C123.519 15.5133 124.112 14.8467 124.859 14.38C125.606 13.9133 126.439 13.68 127.359 13.68C128.146 13.68 128.832 13.84 129.419 14.16C130.019 14.48 130.479 14.9 130.799 15.42V13.84H134.219V25H130.799V23.42C130.466 23.94 129.999 24.36 129.399 24.68C128.812 25 128.126 25.16 127.339 25.16C126.432 25.16 125.606 24.9267 124.859 24.46C124.112 23.98 123.519 23.3067 123.079 22.44C122.652 21.56 122.439 20.5467 122.439 19.4ZM130.799 19.42C130.799 18.5667 130.559 17.8933 130.079 17.4C129.612 16.9067 129.039 16.66 128.359 16.66C127.679 16.66 127.099 16.9067 126.619 17.4C126.152 17.88 125.919 18.5467 125.919 19.4C125.919 20.2533 126.152 20.9333 126.619 21.44C127.099 21.9333 127.679 22.18 128.359 22.18C129.039 22.18 129.612 21.9333 130.079 21.44C130.559 20.9467 130.799 20.2733 130.799 19.42ZM148.093 13.84L141.093 30.3H137.413L139.973 24.62L135.433 13.84H139.253L141.833 20.82L144.393 13.84H148.093ZM159.85 19.24C159.85 19.56 159.83 19.8933 159.79 20.24H152.05C152.103 20.9333 152.323 21.4667 152.71 21.84C153.11 22.2 153.597 22.38 154.17 22.38C155.023 22.38 155.617 22.02 155.95 21.3H159.59C159.403 22.0333 159.063 22.6933 158.57 23.28C158.09 23.8667 157.483 24.3267 156.75 24.66C156.017 24.9933 155.197 25.16 154.29 25.16C153.197 25.16 152.223 24.9267 151.37 24.46C150.517 23.9933 149.85 23.3267 149.37 22.46C148.89 21.5933 148.65 20.58 148.65 19.42C148.65 18.26 148.883 17.2467 149.35 16.38C149.83 15.5133 150.497 14.8467 151.35 14.38C152.203 13.9133 153.183 13.68 154.29 13.68C155.37 13.68 156.33 13.9067 157.17 14.36C158.01 14.8133 158.663 15.46 159.13 16.3C159.61 17.14 159.85 18.12 159.85 19.24ZM156.35 18.34C156.35 17.7533 156.15 17.2867 155.75 16.94C155.35 16.5933 154.85 16.42 154.25 16.42C153.677 16.42 153.19 16.5867 152.79 16.92C152.403 17.2533 152.163 17.7267 152.07 18.34H156.35ZM165.074 15.7C165.474 15.0867 165.974 14.6067 166.574 14.26C167.174 13.9 167.841 13.72 168.574 13.72V17.34H167.634C166.781 17.34 166.141 17.5267 165.714 17.9C165.287 18.26 165.074 18.9 165.074 19.82V25H161.654V13.84H165.074V15.7Z" fill="white"/>
<defs>
<clipPath id="clip0">
<rect width="11.8125" height="11.8125" fill="white" transform="translate(11.1797 12.0234)"/>
</clipPath>
</defs>
</svg>
