<svg width="98" height="98" viewBox="0 0 98 98" fill="none" xmlns="http://www.w3.org/2000/svg">
<g clip-path="url(#clip0)">
<path d="M1.5 19.546H43.258C43.656 19.546 44.037 19.388 44.319 19.107C44.601 18.826 44.758 18.444 44.758 18.046V8.159C44.758 7.33 44.086 6.659 43.258 6.659H1.5C0.672 6.659 0 7.33 0 8.159V18.048C0 18.875 0.672 19.546 1.5 19.546Z" fill="white"/>
<path d="M1.5 43.324H43.258C43.656 43.324 44.037 43.166 44.319 42.885C44.601 42.604 44.758 42.222 44.758 41.824V31.936C44.758 31.107 44.086 30.436 43.258 30.436H1.5C0.672 30.436 0 31.107 0 31.936V41.824C0 42.651 0.672 43.324 1.5 43.324Z" fill="white"/>
<path d="M95.977 77.989H1.5C0.672 77.989 0 78.66 0 79.489V89.378C0 90.207 0.672 90.878 1.5 90.878H95.977C96.375 90.878 96.756 90.72 97.039 90.439C97.321 90.159 97.477 89.777 97.477 89.378V79.489C97.477 78.66 96.805 77.989 95.977 77.989Z" fill="white"/>
<path d="M1.52197 54.211C0.693973 54.211 0.0219727 54.883 0.0219727 55.711V65.6C0.0219727 66.428 0.693973 67.1 1.52197 67.1H96.036C96.433 67.1 96.814 66.942 97.098 66.661C97.379 66.38 97.536 65.998 97.536 65.6V55.711C97.536 54.883 96.864 54.211 96.036 54.211H1.52197Z" fill="white"/>
<path d="M94.004 6.659H63.76C63.061 6.659 62.496 7.225 62.496 7.923V29.917L62.142 29.907C57.816 29.907 54.293 33.427 54.293 37.754C54.293 42.081 57.814 45.601 62.142 45.601C66.394 45.601 69.912 42.142 69.984 37.915L69.988 37.794C69.99 37.778 69.99 37.763 69.99 37.747V17.782H87.773V29.916L87.419 29.906C83.094 29.906 79.573 33.426 79.573 37.753C79.573 42.08 83.094 45.6 87.419 45.6C95.19 45.6 95.268 37.768 95.268 37.753V7.921C95.268 7.225 94.704 6.659 94.004 6.659Z" fill="white"/>
</g>
<defs>
<clipPath id="clip0">
<rect width="97.536" height="97.536" fill="white"/>
</clipPath>
</defs>
</svg>
