<svg width="16" height="16" viewBox="0 0 16 16" fill="none" xmlns="http://www.w3.org/2000/svg">
<g clip-path="url(#clip0)">
<path d="M0.654333 14.7065C1.05639 14.9185 1.54324 14.8901 1.91876 14.6337L10.2342 8.94224C10.5316 8.73867 10.71 8.40172 10.7114 8.04057C10.7125 7.68025 10.5358 7.34183 10.2394 7.13624L1.92482 1.37122C1.54995 1.11127 1.06171 1.08096 0.657548 1.29285C0.253383 1.50414 8.40996e-05 1.92235 8.40597e-05 2.37886L8.30768e-05 13.6219C8.30371e-05 14.0762 0.252004 14.4937 0.654333 14.7065Z" fill="white"/>
<path d="M14.5529 15.3332C15.3521 15.3332 16 14.6852 16 13.8861L16 2.11388C16 1.31473 15.3521 0.666818 14.5529 0.666818C13.7538 0.666817 13.1059 1.31469 13.1059 2.11388L13.1059 13.8861C13.1059 14.6852 13.7538 15.3332 14.5529 15.3332Z" fill="white"/>
</g>
<defs>
<clipPath id="clip0">
<rect width="16" height="16" fill="white" transform="translate(16 16) rotate(-180)"/>
</clipPath>
</defs>
</svg>
