<svg width="417" height="417" viewBox="0 0 417 417" fill="none" xmlns="http://www.w3.org/2000/svg">
<g clip-path="url(#clip0)">
<path d="M281.602 195.204L25.602 3.20406C20.802 -0.44394 14.274 -1.01994 8.86595 1.70006C3.42595 4.42006 0.00195312 9.95606 0.00195312 16.0041V400.004C0.00195312 406.052 3.42595 411.588 8.83395 414.308C11.106 415.428 13.57 416.004 16.002 416.004C19.394 416.004 22.786 414.916 25.602 412.804L281.602 220.804C285.634 217.796 288.002 213.028 288.002 208.004C288.002 202.98 285.634 198.212 281.602 195.204Z" fill="white"/>
<path d="M400.002 0.00402832H368.002C359.17 0.00402832 352.002 7.17203 352.002 16.004V400.004C352.002 408.836 359.17 416.004 368.002 416.004H400.002C408.834 416.004 416.002 408.836 416.002 400.004V16.004C416.002 7.17203 408.834 0.00402832 400.002 0.00402832Z" fill="white"/>
</g>
<defs>
<clipPath id="clip0">
<rect width="416.004" height="416.004" fill="white"/>
</clipPath>
</defs>
</svg>
