<svg width="512" height="512" viewBox="0 0 512 512" fill="none" xmlns="http://www.w3.org/2000/svg">
<g clip-path="url(#clip0)">
<path d="M496.063 62.2991L449.667 15.8991C428.468 -5.29988 393.978 -5.29888 372.779 15.8991C352.82 35.8601 47.964 340.739 27.591 361.113C25.421 363.283 23.967 366.167 23.449 368.988L0.250976 494.268C-0.648024 499.125 0.899976 504.114 4.39298 507.607C7.88998 511.104 12.88 512.649 17.731 511.75L143 488.549C145.895 488.009 148.741 486.541 150.875 484.406L496.063 139.192C517.311 117.944 517.314 83.5501 496.063 62.2991ZM33.721 478.276L47.754 402.492L109.5 464.242L33.721 478.276ZM140.269 452.585L59.41 371.721L354.62 76.4881L435.479 157.353L140.269 452.585ZM474.85 117.979L456.691 136.14L375.832 55.2751L393.991 37.1141C403.492 27.6121 418.951 27.6111 428.454 37.1141L474.85 83.5141C484.375 93.0391 484.375 108.453 474.85 117.979Z" fill="white"/>
</g>
<defs>
<clipPath id="clip0">
<rect width="512.001" height="512.001" fill="white"/>
</clipPath>
</defs>
</svg>
