<svg width="16" height="16" viewBox="0 0 16 16" fill="none" xmlns="http://www.w3.org/2000/svg">
<g clip-path="url(#clip0)">
<path d="M15.5939 5.42139C15.1244 4.45825 14.3178 3.91899 13.5374 3.39687C12.9559 3.00727 12.4075 2.63938 12.019 2.11269L11.9471 2.01558C11.7186 1.70824 11.4581 1.35978 11.4181 1.0673C11.3781 0.771389 11.145 0.565738 10.8137 0.574878C10.5144 0.595443 10.2824 0.844509 10.2824 1.14499V11.3247C9.80371 11.0345 9.21418 10.8563 8.56867 10.8563C6.99429 10.8563 5.7124 11.8811 5.7124 13.1413C5.7124 14.4015 6.99429 15.4263 8.56867 15.4263C10.1442 15.4263 11.4249 14.4015 11.4249 13.1413V6.48277C12.2829 6.81067 13.6871 7.64584 14.0733 9.5961C14.0013 9.70235 13.9327 9.81774 13.8528 9.908C13.6437 10.1445 13.6677 10.5055 13.9042 10.7135C14.1395 10.9237 14.5006 10.8986 14.7096 10.6621C15.4248 9.84973 15.9173 8.56327 15.9938 7.30538C16.0315 6.685 15.8933 6.03377 15.5939 5.42139Z" fill="white"/>
<path d="M0.571253 1.71624H7.42628C7.74162 1.71624 7.99754 1.46031 7.99754 1.14498C7.99754 0.829652 7.74162 0.57373 7.42628 0.57373H0.571253C0.255921 0.57373 0 0.829652 0 1.14498C0 1.46031 0.255921 1.71624 0.571253 1.71624Z" fill="white"/>
<path d="M0.571253 5.14373H7.42628C7.74162 5.14373 7.99754 4.8878 7.99754 4.57247C7.99754 4.25714 7.74162 4.00122 7.42628 4.00122H0.571253C0.255921 4.00122 0 4.25714 0 4.57247C0 4.8878 0.255921 5.14373 0.571253 5.14373Z" fill="white"/>
<path d="M3.99877 7.42877H0.571254C0.255922 7.42877 0 7.68469 0 8.00002C0 8.31534 0.255922 8.57126 0.571254 8.57126H3.99877C4.31411 8.57126 4.57003 8.31534 4.57003 8.00002C4.57003 7.68469 4.31411 7.42877 3.99877 7.42877Z" fill="white"/>
<path d="M3.99877 10.8563H0.571254C0.255922 10.8563 0 11.1122 0 11.4276C0 11.7429 0.255922 11.9988 0.571254 11.9988H3.99877C4.31411 11.9988 4.57003 11.7429 4.57003 11.4276C4.57003 11.1122 4.31411 10.8563 3.99877 10.8563Z" fill="white"/>
</g>
<defs>
<clipPath id="clip0">
<rect width="16" height="16" fill="white"/>
</clipPath>
</defs>
</svg>
