<svg width="16" height="16" viewBox="0 0 16 16" fill="none" xmlns="http://www.w3.org/2000/svg">
<g clip-path="url(#clip0)">
<path d="M15.5942 5.42139C15.1246 4.45825 14.318 3.91899 13.5377 3.39687C12.9561 3.00727 12.4077 2.63938 12.0193 2.11269L11.9473 2.01558C11.7188 1.70824 11.4583 1.35978 11.4183 1.0673C11.3783 0.771389 11.1453 0.565738 10.8139 0.574878C10.5146 0.595443 10.2827 0.844509 10.2827 1.14499V11.3247C9.80396 11.0345 9.21442 10.8563 8.56891 10.8563C6.99454 10.8563 5.71265 11.8811 5.71265 13.1413C5.71265 14.4015 6.99454 15.4263 8.56891 15.4263C10.1444 15.4263 11.4252 14.4015 11.4252 13.1413V6.48277C12.2832 6.81067 13.6873 7.64584 14.0735 9.5961C14.0015 9.70235 13.933 9.81774 13.853 9.908C13.6439 10.1445 13.6679 10.5055 13.9044 10.7135C14.1398 10.9237 14.5008 10.8986 14.7099 10.6621C15.4251 9.84973 15.9175 8.56327 15.9941 7.30538C16.0318 6.685 15.8935 6.03377 15.5942 5.42139Z" fill="#FFA600"/>
<path d="M0.571253 1.71624H7.42628C7.74162 1.71624 7.99754 1.46031 7.99754 1.14498C7.99754 0.829652 7.74162 0.57373 7.42628 0.57373H0.571253C0.255921 0.57373 0 0.829652 0 1.14498C0 1.46031 0.255921 1.71624 0.571253 1.71624Z" fill="#FFA600"/>
<path d="M0.571253 5.14373H7.42628C7.74162 5.14373 7.99754 4.8878 7.99754 4.57247C7.99754 4.25714 7.74162 4.00122 7.42628 4.00122H0.571253C0.255921 4.00122 0 4.25714 0 4.57247C0 4.8878 0.255921 5.14373 0.571253 5.14373Z" fill="#FFA600"/>
<path d="M3.99877 7.42877H0.571254C0.255922 7.42877 0 7.68469 0 8.00002C0 8.31534 0.255922 8.57126 0.571254 8.57126H3.99877C4.31411 8.57126 4.57003 8.31534 4.57003 8.00002C4.57003 7.68469 4.31411 7.42877 3.99877 7.42877Z" fill="#FFA600"/>
<path d="M3.99877 10.8563H0.571254C0.255922 10.8563 0 11.1122 0 11.4276C0 11.7429 0.255922 11.9988 0.571254 11.9988H3.99877C4.31411 11.9988 4.57003 11.7429 4.57003 11.4276C4.57003 11.1122 4.31411 10.8563 3.99877 10.8563Z" fill="#FFA600"/>
</g>
<defs>
<clipPath id="clip0">
<rect width="16" height="16" fill="white"/>
</clipPath>
</defs>
</svg>
