<svg width="300" height="300" viewBox="0 0 300 300" fill="none" xmlns="http://www.w3.org/2000/svg">
<path d="M199.481 144.135L137.187 98.8516C134.901 97.1944 131.866 96.9449 129.36 98.2327C126.834 99.5105 125.257 102.106 125.257 104.911V195.447C125.257 198.283 126.834 200.868 129.36 202.146C130.428 202.685 131.596 202.955 132.774 202.955C134.312 202.955 135.869 202.465 137.187 201.497L199.481 156.254C201.447 154.807 202.596 152.57 202.596 150.194C202.606 147.778 201.428 145.552 199.481 144.135Z" fill="white"/>
<path d="M150.005 0.0195312C67.1458 0.0195312 0 67.1654 0 150.025C0 232.854 67.1458 299.98 150.005 299.98C232.844 299.98 300 232.844 300 150.025C300.01 67.1654 232.844 0.0195312 150.005 0.0195312ZM150.005 274.952C81.0023 274.952 25.0574 219.037 25.0574 150.025C25.0574 81.0418 81.0023 25.057 150.005 25.057C218.998 25.057 274.933 81.0318 274.933 150.025C274.943 219.037 218.998 274.952 150.005 274.952Z" fill="white"/>
</svg>
