<svg width="349" height="349" viewBox="0 0 349 349" fill="none" xmlns="http://www.w3.org/2000/svg">
<g clip-path="url(#clip0)">
<path d="M334.241 28.174C325.484 23.557 314.88 24.174 306.701 29.76L125.586 153.723C119.107 158.157 115.221 165.496 115.191 173.362C115.168 181.21 119.016 188.581 125.471 193.059L306.569 318.625C314.734 324.287 325.368 324.947 334.171 320.332C342.974 315.73 348.491 306.621 348.491 296.678V51.797C348.491 41.902 343.004 32.809 334.241 28.174Z" fill="white"/>
<path d="M31.518 14.524C14.112 14.524 0 28.637 0 46.043V302.449C0 319.855 14.112 333.967 31.518 333.967C48.924 333.967 63.036 319.856 63.036 302.449V46.043C63.036 28.637 48.924 14.524 31.518 14.524Z" fill="white"/>
</g>
<defs>
<clipPath id="clip0">
<rect width="348.491" height="348.491" fill="white"/>
</clipPath>
</defs>
</svg>
