<svg width="513" height="513" viewBox="0 0 513 513" fill="none" xmlns="http://www.w3.org/2000/svg">
<g clip-path="url(#clip0)">
<path d="M507.336 100.696L411.336 4.69601C406.76 0.120011 399.88 -1.25599 393.896 1.24001C387.912 3.73601 384.008 9.52801 384.008 15.992V63.992H176.008C78.7918 63.992 0.0078125 142.776 0.0078125 239.992C0.0078125 248.824 7.17581 255.992 16.0078 255.992H80.0078C88.8398 255.992 96.0078 248.824 96.0078 239.992C96.0078 195.8 131.816 159.992 176.008 159.992H384.008V207.992C384.008 214.456 387.912 220.312 393.896 222.776C399.88 225.272 406.76 223.896 411.336 219.32L507.336 123.32C513.576 117.08 513.576 106.936 507.336 100.696Z" fill="#FFCA00"/>
<path d="M496.008 255.992H432.008C423.176 255.992 416.008 263.16 416.008 271.992C416.008 316.184 380.2 351.992 336.008 351.992H128.008V303.992C128.008 297.528 124.104 291.672 118.12 289.208C112.136 286.744 105.288 288.12 100.68 292.696L4.68 388.696C-1.56 394.936 -1.56 405.08 4.68 411.32L100.68 507.32C105.256 511.896 112.136 513.272 118.12 510.776C124.104 508.28 128.008 502.456 128.008 495.992V447.992H336.008C433.224 447.992 512.008 369.208 512.008 271.992C512.008 263.16 504.84 255.992 496.008 255.992Z" fill="#FFCA00"/>
</g>
<defs>
<clipPath id="clip0">
<rect width="512.016" height="512.016" fill="white"/>
</clipPath>
</defs>
</svg>
