<svg width="461" height="461" viewBox="0 0 461 461" fill="none" xmlns="http://www.w3.org/2000/svg">
<g clip-path="url(#clip0)">
<path d="M175.008 244.596C164.827 260.084 154.046 275.13 141.183 288.663C110.878 320.542 71.3298 329.007 28.6608 326.839C-9.6482 324.889 -9.4602 384.312 28.6608 386.251C108.827 390.323 165.492 355.687 210.605 296.722C203.176 287.038 196.311 277.284 190.029 267.884C184.859 260.16 179.857 252.264 175.008 244.596Z" fill="white"/>
<path d="M252.401 197.317C256.519 203.792 260.587 210.159 264.69 216.4C272.211 206.016 280.234 195.992 289.262 186.671C312.052 163.147 338.016 153.481 366.524 150.746C364.715 152.925 362.959 155.144 361.136 157.312C350.721 169.689 348.964 187.145 361.136 199.322C371.845 210.034 392.71 211.725 403.146 199.322C419.217 180.229 434.569 160.531 450.64 141.438C461.106 130.919 465.113 113.425 452.159 99.392L398.693 41.465C372.658 13.262 330.75 55.374 356.682 83.475L363.623 90.994C334.461 93.081 306.38 100.5 280.451 117.353C261.079 129.947 244.789 146.132 230.256 163.865C233.175 167.958 236.09 172.117 238.959 176.459C243.546 183.401 248.045 190.478 252.401 197.317Z" fill="white"/>
<path d="M403.151 260.978C398.119 255.006 390.674 252.3 383.103 252.3C374.968 252.3 366.686 255.433 361.141 260.978C348.969 273.16 350.726 290.613 361.141 302.988C362.964 305.157 364.721 307.381 366.529 309.559C338.021 306.828 312.052 297.154 289.267 273.632C276.303 260.251 265.366 245.454 255.097 230.154C245.145 215.329 235.831 200.026 225.95 185.059C224.061 182.2 222.121 179.455 220.192 176.688C175.872 113.109 120.445 73.727 41.2847 73.727C37.1467 73.727 32.9367 73.836 28.6657 74.049C-8.83532 75.955 -9.62232 133.504 26.8427 133.504C27.4427 133.504 28.0467 133.486 28.6657 133.456C32.7837 133.248 36.8617 133.139 40.9137 133.139C78.8717 133.139 113.803 142.832 141.184 171.64C158.018 189.355 171.302 209.646 184.311 230.154C190.481 239.879 196.595 249.643 202.998 259.22C208.502 267.456 214.21 275.637 220.177 283.615C237.189 306.344 256.485 327.372 280.448 342.951C306.377 359.805 334.458 367.223 363.62 369.305L356.679 376.826C336.788 398.378 356.796 428.165 378.951 428.165C385.684 428.165 392.621 425.407 398.689 418.837L452.16 360.912C465.114 346.877 461.107 329.383 450.641 318.866C434.574 299.763 419.224 280.076 403.151 260.978Z" fill="white"/>
</g>
<defs>
<clipPath id="clip0">
<rect width="460.303" height="460.303" fill="white"/>
</clipPath>
</defs>
</svg>
