<svg width="478" height="478" viewBox="0 0 478 478" fill="none" xmlns="http://www.w3.org/2000/svg">
<g clip-path="url(#clip0)">
<path d="M472.897 124.269C472.887 124.259 472.877 124.249 472.867 124.238L472.85 124.255L404.583 55.988C397.803 49.44 386.999 49.628 380.451 56.408C374.063 63.022 374.063 73.507 380.451 80.121L419.602 119.272H324.268C258.32 119.347 204.877 172.79 204.801 238.739C204.745 285.844 166.573 324.016 119.468 324.072H17.068C7.641 324.072 0 331.713 0 341.139C0 350.565 7.641 358.206 17.067 358.206H119.467C185.415 358.131 238.858 304.688 238.934 238.739C238.99 191.634 277.162 153.462 324.267 153.406H419.601L380.467 192.54C373.687 199.088 373.499 209.893 380.048 216.672C386.596 223.452 397.401 223.64 404.18 217.091C404.322 216.954 404.462 216.814 404.599 216.672L472.866 148.405C479.54 141.748 479.553 130.942 472.897 124.269Z" fill="#FFCA00"/>
<path d="M472.897 329.069C472.887 329.059 472.877 329.049 472.867 329.039L472.85 329.056L404.583 260.789C397.803 254.241 386.999 254.429 380.451 261.209C374.063 267.823 374.063 278.308 380.451 284.921L419.602 324.072H324.268C303.272 324.087 283.01 316.351 267.368 302.346C260.287 296.124 249.504 296.821 243.282 303.901C237.142 310.889 237.729 321.506 244.601 327.775C266.499 347.389 294.87 358.226 324.268 358.205H419.602L380.468 397.339C373.688 403.887 373.5 414.691 380.048 421.471C386.596 428.251 397.4 428.439 404.18 421.891C404.322 421.753 404.462 421.614 404.6 421.471L472.867 353.204C479.54 346.548 479.553 335.742 472.897 329.069Z" fill="#FFCA00"/>
<path d="M199.134 149.702C177.236 130.088 148.865 119.251 119.467 119.272H17.067C7.641 119.272 0 126.913 0 136.339C0 145.765 7.641 153.406 17.067 153.406H119.467C140.463 153.391 160.725 161.127 176.367 175.132C183.448 181.354 194.231 180.657 200.453 173.577C206.593 166.588 206.006 155.971 199.134 149.702Z" fill="#FFCA00"/>
</g>
<defs>
<clipPath id="clip0">
<rect width="477.88" height="477.88" fill="white"/>
</clipPath>
</defs>
</svg>
